# xmcd
#
# Track frame offsets:
#	150
#	14767
#	26070
#	40542
#	55345
#	68075
#	81287
#	103902
#	122927
#	135707
#	148627
#	176972
#	191367
#	203825
#	219775
#	233950
#
# Disc length: 3325 seconds
#
# Revision: 1
# Processed by: cddbd v1.5.1PL2 Copyright (c) Steve Scherf et al.
# Submitted via: audiograbber 1.83.01
#
DISCID=ec0cfb10
DTITLE=Louis Armstrong and Bessie Smith - Together
DYEAR=1996
DGENRE=
TTITLE0=Dear Old Southland
TTITLE1=Jeepers Creepers
TTITLE2=Someday You'll Be Sorry
TTITLE3=Body And Soul 
TTITLE4=St. Louis Blues
TTITLE5=Ain't Misbehavin'
TTITLE6=Royal Garden Blues
TTITLE7=Black And Blue
TTITLE8=I Used To Be Your Sweet Mama
TTITLE9=Standin' In The Rain
TTITLE10=Empty Bed Blues
TTITLE11=Devil's Gonna Get You
TTITLE12=You've Got To Give Me Some
TTITLE13=Keep It To Yourself
TTITLE14=Black Mountain Blues
TTITLE15=Do Your Duty
EXTD=
EXTT0=
EXTT1=
EXTT2=
EXTT3=
EXTT4=
EXTT5=
EXTT6=
EXTT7=
EXTT8=
EXTT9=
EXTT10=
EXTT11=
EXTT12=
EXTT13=
EXTT14=
EXTT15=
PLAYORDER=
